# xmcd
#
# Track frame offsets:
#	150
#	17862
#	37622
#	54318
#	69697
#	84755
#	102983
#	118070
#	137748
#	155182
#	173137
#
# Disc length: 2557 seconds
#
# Revision: 1
# Processed by: cddbd v1.5.2PL0 Copyright (c) Steve Scherf et al.
# Submitted via: audiograbber 1.82.02
#
DISCID=8a09fb0b
DTITLE=Van Zant - My Kind Of Country
DYEAR=2007
DGENRE=Country
TTITLE0=Train
TTITLE1=These Colors Don't Run
TTITLE2=Goes Down Easy
TTITLE3=That Scares Me
TTITLE4=My Kind of Country
TTITLE5=The Hardest Thing
TTITLE6=It's Only Money
TTITLE7=We Can't Do It Alone
TTITLE8=Friend
TTITLE9=It's All About You
TTITLE10=Headed South
EXTD=Summit By Dream`Master
EXTT0=
EXTT1=
EXTT2=
EXTT3=
EXTT4=
EXTT5=
EXTT6=
EXTT7=
EXTT8=
EXTT9=
EXTT10=
PLAYORDER=
